<?xml version="1.0" encoding="UTF-8"?>
<svg id="logo" xmlns="http://www.w3.org/2000/svg" viewBox="0 0 500 500">
  <defs>
    <style>
      .cls-1 {
        fill: #fff;
      }

      .cls-2 {
        fill: #e1251b;
      }
    </style>
  </defs>
  <g>
    <path class="cls-1" d="M167.33,116.96c-.05-.99.51-1.92,1.41-2.33,38.31-17.42,82.63-27.38,129.82-27.38,27.83,0,54.64,3.49,79.82,9.91,1.44.37,2.86-.65,2.96-2.13.07-1.03.13-2.06.19-3.09.05-.99-.5-1.91-1.4-2.32-38.31-17.42-82.61-27.39-129.79-27.39s-91.5,9.96-129.82,27.38c-.9.41-1.46,1.34-1.41,2.33,4.98,94.37,55.94,175.99,129.97,221.05.77.47,1.75.47,2.52,0,1.33-.81,2.64-1.63,3.95-2.47s1.46-2.69.31-3.75c-51.11-46.99-84.53-114.32-88.52-189.81Z"/>
    <path class="cls-2" d="M284.64,226.83l14.25-24.69c.45-.77.45-1.73,0-2.5l-14.25-24.69c-.96-1.67-3.37-1.67-4.33,0l-14.25,24.69c-.45.77-.45,1.73,0,2.5l14.25,24.69c.96,1.67,3.37,1.67,4.33,0Z"/>
    <path class="cls-2" d="M354.15,226.83l14.25-24.69c.45-.77.45-1.73,0-2.5l-14.25-24.69c-.96-1.67-3.37-1.67-4.33,0l-14.25,24.69c-.45.77-.45,1.73,0,2.5l14.25,24.69c.96,1.67,3.37,1.67,4.33,0Z"/>
    <path class="cls-2" d="M319.38,237.77l19.98-34.58c.45-.77.45-1.73,0-2.5l-19.96-34.59c-.96-1.67-3.37-1.67-4.33,0l-19.98,34.58c-.45.77-.45,1.73,0,2.5l19.96,34.59c.96,1.67,3.37,1.67,4.33,0Z"/>
  </g>
  <g>
    <path class="cls-1" d="M150.7,437.77h-15.99v-62.14h40.08c4.31,0,7.97.47,10.97,1.4s5.44,2.26,7.33,3.98c1.88,1.72,3.25,3.79,4.09,6.22.85,2.43,1.27,5.13,1.27,8.12,0,2.62-.35,4.91-1.06,6.87-.7,1.96-1.65,3.64-2.84,5.04-1.19,1.4-2.58,2.59-4.16,3.55-1.58.96-3.25,1.76-5,2.4l19.39,24.56h-18.7l-17.93-22.88h-17.45v22.88ZM182.29,395.26c0-1.21-.15-2.23-.45-3.08-.3-.84-.83-1.53-1.57-2.06s-1.75-.91-3-1.15c-1.25-.24-2.81-.36-4.68-.36h-21.89v13.3h21.89c1.87,0,3.43-.12,4.68-.36,1.25-.24,2.25-.63,3-1.15s1.27-1.21,1.57-2.06c.3-.84.45-1.87.45-3.08Z"/>
    <path class="cls-1" d="M277.11,437.77v-43.64l-21.12,43.64h-14.74l-21.12-43.64v43.64h-15.36v-62.14h20.87l22.98,47.03,22.98-47.03h20.78v62.14h-15.28Z"/>
    <path class="cls-1" d="M346.64,425.93h-31.75l-5.35,11.76h-17.16l29.8-62.14h17.16l29.8,62.14h-17.16l-5.35-11.76ZM320.41,413.81h20.81l-10.36-22.88-10.44,22.88Z"/>
    <path class="cls-1" d="M125.75,393.57c-1.21-.54-2.81-1.15-4.8-1.83-1.99-.68-4.24-1.32-6.76-1.93-2.52-.61-5.25-1.12-8.2-1.53-2.95-.41-5.98-.61-9.08-.61-2.49,0-4.61.07-6.36.21-1.76.15-3.23.33-4.43.55-1.2.23-2.14.49-2.84.79s-1.24.6-1.61.91c-.37.31-.61.62-.72.94s-.16.59-.16.85c0,.85.47,1.59,1.4,2.23s2.2,1.21,3.82,1.7c1.61.5,3.49.96,5.64,1.4s4.42.89,6.83,1.36c2.41.47,4.89.98,7.45,1.53,2.56.55,5.05,1.2,7.46,1.93,2.41.74,4.68,1.59,6.82,2.57,2.14.98,4.02,2.12,5.64,3.42s2.89,2.8,3.82,4.5c.93,1.7,1.4,3.64,1.4,5.82,0,2.8-.54,5.21-1.63,7.22-1.09,2.01-2.54,3.71-4.36,5.1-1.82,1.39-3.92,2.5-6.31,3.33-2.39.83-4.9,1.48-7.52,1.93s-5.28.75-7.97.89c-2.69.14-5.24.21-7.66.21-6.33,0-12.2-.47-17.59-1.42s-10.15-2.13-14.28-3.54v-13.93c4.26,2.15,9.11,3.84,14.56,5.05,5.45,1.22,11.28,1.82,17.49,1.82,3.66,0,6.65-.18,8.97-.53,2.31-.35,4.12-.81,5.43-1.36,1.31-.55,2.19-1.15,2.66-1.81.47-.65.7-1.27.7-1.87,0-.94-.47-1.75-1.4-2.44-.93-.69-2.21-1.3-3.82-1.83-1.62-.52-3.49-1-5.64-1.44-2.14-.44-4.42-.88-6.83-1.32-2.41-.44-4.88-.91-7.43-1.42-2.55-.51-5.02-1.11-7.43-1.8-2.41-.7-4.68-1.5-6.83-2.42-2.14-.92-4.02-2.01-5.64-3.27s-2.89-2.72-3.82-4.38c-.93-1.65-1.4-3.57-1.4-5.75,0-2.58.5-4.8,1.49-6.67.99-1.87,2.34-3.46,4.03-4.78,1.69-1.32,3.65-2.39,5.87-3.21,2.22-.82,4.56-1.46,7.01-1.91s4.94-.77,7.46-.94c2.51-.17,4.91-.25,7.17-.25,2.49,0,5.04.11,7.66.34,2.62.23,5.21.55,7.76.96,2.55.41,5.01.89,7.38,1.42s4.57,1.1,6.59,1.7v13.5Z"/>
    <path class="cls-1" d="M431.37,393.57c-1.21-.54-2.81-1.15-4.8-1.83-1.99-.68-4.24-1.32-6.76-1.93-2.52-.61-5.25-1.12-8.2-1.53-2.95-.41-5.98-.61-9.08-.61-2.49,0-4.61.07-6.36.21-1.76.15-3.23.33-4.43.55-1.2.23-2.14.49-2.84.79s-1.24.6-1.61.91c-.37.31-.61.62-.72.94s-.16.59-.16.85c0,.85.47,1.59,1.4,2.23.93.64,2.2,1.21,3.82,1.7,1.61.5,3.49.96,5.64,1.4s4.42.89,6.83,1.36c2.41.47,4.89.98,7.45,1.53,2.56.55,5.05,1.2,7.46,1.93,2.41.74,4.68,1.59,6.82,2.57,2.14.98,4.02,2.12,5.64,3.42s2.89,2.8,3.82,4.5c.93,1.7,1.4,3.64,1.4,5.82,0,2.8-.54,5.21-1.63,7.22-1.09,2.01-2.54,3.71-4.36,5.1-1.82,1.39-3.92,2.5-6.31,3.33-2.39.83-4.9,1.48-7.52,1.93s-5.28.75-7.97.89c-2.69.14-5.24.21-7.66.21-6.33,0-12.2-.47-17.59-1.42s-10.15-2.13-14.28-3.54v-13.93c4.26,2.15,9.11,3.84,14.56,5.05,5.45,1.22,11.28,1.82,17.49,1.82,3.66,0,6.65-.18,8.97-.53,2.31-.35,4.12-.81,5.43-1.36,1.31-.55,2.19-1.15,2.66-1.81.47-.65.7-1.27.7-1.87,0-.94-.47-1.75-1.4-2.44-.93-.69-2.21-1.3-3.82-1.83-1.62-.52-3.49-1-5.64-1.44-2.14-.44-4.42-.88-6.83-1.32-2.41-.44-4.88-.91-7.43-1.42-2.55-.51-5.02-1.11-7.43-1.8-2.41-.7-4.68-1.5-6.83-2.42-2.14-.92-4.02-2.01-5.64-3.27s-2.89-2.72-3.82-4.38c-.93-1.65-1.4-3.57-1.4-5.75,0-2.58.5-4.8,1.49-6.67.99-1.87,2.34-3.46,4.03-4.78,1.69-1.32,3.65-2.39,5.87-3.21,2.22-.82,4.56-1.46,7.01-1.91s4.94-.77,7.46-.94c2.51-.17,4.91-.25,7.17-.25,2.49,0,5.04.11,7.66.34,2.62.23,5.21.55,7.76.96,2.55.41,5.01.89,7.38,1.42s4.57,1.1,6.59,1.7v13.5Z"/>
  </g>
</svg>