<?xml version="1.0" encoding="UTF-8"?>
<svg id="logo" xmlns="http://www.w3.org/2000/svg" viewBox="0 0 500 500">
  <defs>
    <style>
      .cls-1 {
        fill: #15161c;
      }

      .cls-2 {
        fill: #e1251b;
      }
    </style>
  </defs>
  <path class="cls-1" d="M153.13,167.32c-.06-1.15.59-2.24,1.64-2.72,44.73-20.33,96.46-31.97,151.55-31.97,32.48,0,63.78,4.07,93.17,11.56,1.68.43,3.34-.75,3.45-2.48.08-1.2.16-2.4.22-3.61.06-1.15-.59-2.23-1.64-2.71-44.73-20.34-96.43-31.97-151.52-31.97s-106.82,11.63-151.54,31.97c-1.05.48-1.71,1.57-1.65,2.72,5.82,110.16,65.3,205.44,151.72,258.05.9.55,2.04.55,2.94,0,1.55-.95,3.08-1.91,4.61-2.88,1.54-.98,1.71-3.14.36-4.38-59.67-54.85-98.68-133.45-103.33-221.58Z"/>
  <path class="cls-2" d="M364.53,307.14l23.32-40.37c.52-.9.52-2.02,0-2.92l-23.3-40.38c-1.12-1.95-3.93-1.95-5.05,0l-23.32,40.37c-.52.9-.52,2.02,0,2.92l23.3,40.38c1.12,1.95,3.93,1.95,5.05,0Z"/>
  <path class="cls-2" d="M322.18,263.84l32.24-56.18c.52-.9.52-2,0-2.9l-23.3-40.65c-1.12-1.96-3.94-1.96-5.06,0l-57.24,99.73c-.52.9-.52,2,0,2.9l57.19,99.76c1.12,1.96,3.94,1.96,5.06,0l23.33-40.65c.52-.9.52-2,0-2.9l-32.22-56.21c-.52-.9-.52-2,0-2.9Z"/>
</svg>