<?xml version="1.0" encoding="UTF-8"?>
<svg id="logo" xmlns="http://www.w3.org/2000/svg" viewBox="0 0 500 500">
  <defs>
    <style>
      .cls-1 {
        fill: #fff;
      }

      .cls-2 {
        fill: #e1251b;
      }
    </style>
  </defs>
  <g>
    <path class="cls-1" d="M167.33,116.96c-.05-.99.51-1.92,1.41-2.33,38.31-17.42,82.63-27.38,129.82-27.38,27.83,0,54.64,3.49,79.82,9.91,1.44.37,2.86-.65,2.96-2.13.07-1.03.13-2.06.19-3.09.05-.99-.5-1.91-1.4-2.32-38.31-17.42-82.61-27.39-129.79-27.39s-91.5,9.96-129.82,27.38c-.9.41-1.46,1.34-1.41,2.33,4.98,94.37,55.94,175.99,129.97,221.05.77.47,1.75.47,2.52,0,1.33-.81,2.64-1.63,3.95-2.47,1.32-.84,1.46-2.69.31-3.75-51.11-46.99-84.53-114.32-88.52-189.81Z"/>
    <path class="cls-2" d="M348.42,236.73l19.98-34.58c.45-.77.45-1.73,0-2.5l-19.96-34.59c-.96-1.67-3.37-1.67-4.33,0l-19.98,34.58c-.45.77-.45,1.73,0,2.5l19.96,34.59c.96,1.67,3.37,1.67,4.33,0Z"/>
    <path class="cls-2" d="M312.14,199.64l27.62-48.13c.44-.77.44-1.72,0-2.49l-19.96-34.82c-.96-1.68-3.38-1.68-4.34,0l-49.03,85.43c-.44.77-.44,1.72,0,2.49l48.99,85.46c.96,1.68,3.38,1.68,4.34,0l19.98-34.82c.44-.77.44-1.72,0-2.49l-27.6-48.15c-.44-.77-.44-1.72,0-2.49Z"/>
  </g>
  <g>
    <path class="cls-1" d="M62.94,437.77v-62.23h16.57v48.6h44.8v13.63h-61.37Z"/>
    <path class="cls-1" d="M198.04,424.05c-1.47,2.64-3.68,4.95-6.63,6.92-2.94,1.98-6.62,3.53-11.03,4.68-4.4,1.15-9.55,1.72-15.44,1.72s-11.05-.57-15.49-1.72c-4.43-1.15-8.12-2.71-11.07-4.68-2.95-1.97-5.16-4.28-6.63-6.92-1.47-2.64-2.21-5.45-2.21-8.44v-39.65h16.03v33.86c0,2,.25,3.9.76,5.68.5,1.79,1.46,3.35,2.86,4.68,1.4,1.33,3.36,2.39,5.89,3.18,2.53.78,5.81,1.18,9.85,1.18s7.28-.39,9.79-1.18c2.51-.79,4.47-1.84,5.87-3.18,1.4-1.34,2.35-2.9,2.84-4.68.49-1.78.74-3.68.74-5.68v-33.86h16.07v39.65c0,2.99-.74,5.8-2.21,8.44Z"/>
    <path class="cls-1" d="M271.78,434.46c-2.11.69-4.29,1.28-6.54,1.79-2.25.5-4.63.88-7.13,1.14-2.5.26-5.18.39-8.04.39-6.06,0-11.65-.64-16.74-1.94-5.1-1.29-9.49-3.23-13.17-5.83-3.68-2.6-6.55-5.84-8.6-9.73-2.05-3.89-3.08-8.43-3.08-13.62s1.02-9.73,3.08-13.62c2.05-3.89,4.92-7.13,8.6-9.73,3.68-2.6,8.07-4.54,13.17-5.83,5.1-1.29,10.68-1.94,16.74-1.94,2.86,0,5.54.13,8.04.39,2.5.26,4.87.64,7.13,1.14,2.25.5,4.43,1.1,6.54,1.79,2.11.69,4.2,1.46,6.28,2.33v14.37c-1.65-.89-3.38-1.77-5.2-2.65-1.82-.87-3.83-1.66-6.02-2.36-2.19-.7-4.61-1.28-7.23-1.72-2.63-.44-5.59-.67-8.88-.67-5.05,0-9.25.52-12.58,1.55-3.34,1.03-6,2.41-7.99,4.13-1.99,1.72-3.39,3.69-4.2,5.92-.81,2.22-1.21,4.53-1.21,6.91,0,1.58.17,3.13.52,4.67.35,1.54.92,2.99,1.73,4.35.81,1.36,1.86,2.62,3.16,3.77,1.3,1.15,2.92,2.13,4.85,2.97,1.93.83,4.19,1.48,6.78,1.96,2.58.47,5.57.71,8.94.71s6.25-.21,8.88-.63c2.63-.41,5.04-.97,7.23-1.66,2.2-.69,4.2-1.47,6.02-2.35,1.82-.87,3.55-1.77,5.2-2.69v14.38c-2.08.86-4.17,1.64-6.28,2.32Z"/>
    <path class="cls-1" d="M343.11,426h-36.42l-6.14,11.78h-19.69l34.19-62.23h19.69l34.19,62.23h-19.69l-6.14-11.78ZM313.01,413.86h23.87l-11.89-22.92-11.98,22.92Z"/>
    <path class="cls-1" d="M431.98,393.88c-1.16-.54-2.69-1.15-4.59-1.83-1.9-.68-4.06-1.32-6.47-1.93-2.41-.61-5.02-1.12-7.85-1.53-2.83-.41-5.72-.61-8.7-.61-2.38,0-4.41.07-6.09.21-1.68.15-3.09.33-4.24.55-1.14.23-2.05.49-2.72.79s-1.18.6-1.54.91c-.36.31-.59.62-.69.94s-.16.59-.16.85c0,.85.45,1.59,1.34,2.23.89.64,2.11,1.21,3.66,1.7,1.55.5,3.34.96,5.4,1.4s4.23.89,6.53,1.36c2.3.47,4.68.98,7.13,1.53,2.45.55,4.83,1.2,7.14,1.93,2.3.74,4.48,1.59,6.53,2.57,2.05.98,3.85,2.12,5.4,3.42,1.55,1.3,2.76,2.8,3.66,4.5.89,1.7,1.34,3.64,1.34,5.82,0,2.8-.52,5.21-1.56,7.22-1.04,2.01-2.43,3.71-4.17,5.1-1.74,1.39-3.75,2.5-6.04,3.33-2.29.83-4.69,1.48-7.2,1.93-2.51.45-5.05.75-7.62.89-2.57.14-5.02.21-7.34.21-6.06,0-11.67-.47-16.83-1.42-5.16-.95-9.71-2.13-13.67-3.54v-13.93c4.07,2.15,8.72,3.84,13.93,5.05,5.22,1.22,10.8,1.82,16.74,1.82,3.51,0,6.37-.18,8.58-.53,2.21-.35,3.95-.81,5.19-1.36,1.25-.55,2.1-1.15,2.54-1.81.45-.65.67-1.27.67-1.87,0-.94-.45-1.75-1.34-2.44-.89-.69-2.11-1.3-3.66-1.83-1.55-.52-3.34-1-5.4-1.44-2.05-.44-4.23-.88-6.53-1.32-2.3-.44-4.68-.91-7.11-1.42-2.44-.51-4.81-1.11-7.11-1.8-2.3-.7-4.48-1.5-6.53-2.42-2.05-.92-3.85-2.01-5.4-3.27-1.55-1.26-2.76-2.72-3.66-4.38-.89-1.65-1.34-3.57-1.34-5.75,0-2.58.48-4.8,1.43-6.67.95-1.87,2.24-3.46,3.86-4.78,1.62-1.32,3.49-2.39,5.62-3.21,2.13-.82,4.36-1.46,6.71-1.91s4.73-.77,7.14-.94c2.41-.17,4.7-.25,6.87-.25,2.38,0,4.82.11,7.34.34,2.51.23,4.99.55,7.42.96,2.44.41,4.79.89,7.07,1.42,2.27.54,4.38,1.1,6.31,1.7v13.5Z"/>
  </g>
</svg>