<?xml version="1.0" encoding="UTF-8"?>
<svg id="logo" xmlns="http://www.w3.org/2000/svg" viewBox="0 0 500 500">
  <defs>
    <style>
      .cls-1 {
        fill: #15161c;
      }

      .cls-2 {
        fill: #e1251b;
      }
    </style>
  </defs>
  <path class="cls-1" d="M154.42,167.75c-.06-1.15.59-2.23,1.64-2.7,44.5-20.23,95.97-31.8,150.77-31.8,32.32,0,63.45,4.05,92.7,11.5,1.67.43,3.32-.75,3.43-2.47.08-1.2.15-2.39.22-3.59s-.59-2.22-1.63-2.7c-44.5-20.23-95.94-31.81-150.74-31.81s-106.27,11.57-150.77,31.8c-1.05.48-1.7,1.56-1.64,2.71,5.79,109.59,64.96,204.39,150.94,256.72.89.54,2.03.54,2.92,0,1.54-.94,3.07-1.9,4.59-2.86,1.53-.97,1.7-3.13.36-4.36-59.36-54.57-98.17-132.76-102.8-220.44Z"/>
  <path class="cls-2" d="M387.93,263.78l-23.19-40.18c-1.12-1.93-3.9-1.94-5.02,0l-28.88,49.65c-1.12,1.93-3.91,1.92-5.03-.01l-28.51-49.6c-1.11-1.94-3.91-1.94-5.03,0l-23.2,40.15c-.52.9-.52,2,0,2.9l33.12,57.62h0s1.18,2.04,1.18,2.04l.02.03h0l22.83,39.56c1.12,1.94,3.91,1.94,5.03,0l24.04-41.61-.44-.75,33.09-56.87c.52-.9.53-2.01,0-2.91Z"/>
  <path class="cls-2" d="M331.25,224.79l16.55-28.67c.52-.9.52-2.01,0-2.9l-16.55-28.67c-1.12-1.94-3.91-1.94-5.03,0l-16.55,28.67c-.52.9-.52,2.01,0,2.9l16.55,28.67c1.12,1.94,3.91,1.94,5.03,0Z"/>
</svg>