<?xml version="1.0" encoding="UTF-8"?>
<svg id="logo" xmlns="http://www.w3.org/2000/svg" viewBox="0 0 500 500">
  <defs>
    <style>
      .cls-1 {
        fill: #fff;
      }

      .cls-2 {
        fill: #e1251b;
      }
    </style>
  </defs>
  <g>
    <path class="cls-1" d="M167.33,116.96c-.05-.99.51-1.92,1.41-2.33,38.31-17.42,82.63-27.38,129.82-27.38,27.83,0,54.64,3.49,79.82,9.91,1.44.37,2.86-.65,2.96-2.13.07-1.03.13-2.06.19-3.09.05-.99-.5-1.91-1.4-2.32-38.31-17.42-82.61-27.39-129.79-27.39s-91.5,9.96-129.82,27.38c-.9.41-1.46,1.34-1.41,2.33,4.98,94.37,55.94,175.99,129.97,221.05.77.47,1.75.47,2.52,0,1.33-.81,2.64-1.63,3.95-2.47s1.46-2.69.31-3.75c-51.11-46.99-84.53-114.32-88.52-189.81Z"/>
    <path class="cls-2" d="M368.4,199.65l-19.96-34.6c-.96-1.66-3.36-1.67-4.33,0l-24.87,42.75c-.97,1.66-3.37,1.66-4.33-.01l-24.55-42.7c-.96-1.67-3.37-1.67-4.33,0l-19.97,34.58c-.45.77-.45,1.72,0,2.5l28.52,49.62h0s1.01,1.76,1.01,1.76v.02h.01l19.65,34.06c.96,1.67,3.37,1.67,4.33,0l20.7-35.83-.38-.65,28.49-48.97c.45-.77.45-1.73,0-2.51Z"/>
    <path class="cls-2" d="M319.59,166.08l14.25-24.69c.45-.77.45-1.73,0-2.5l-14.25-24.69c-.96-1.67-3.37-1.67-4.33,0l-14.25,24.69c-.45.77-.45,1.73,0,2.5l14.25,24.69c.96,1.67,3.37,1.67,4.33,0Z"/>
  </g>
  <g>
    <path class="cls-1" d="M163.89,437.68v-25.91h-42.69v25.91h-16.78v-62.14h16.78v22.61h42.69v-22.61h16.78v62.14h-16.78Z"/>
    <path class="cls-1" d="M204.75,437.68v-62.14h62.9v13.25h-45.68v10.27h43.32v13.25h-43.32v12.12h46.31v13.25h-63.54Z"/>
    <path class="cls-1" d="M289.11,437.68v-62.14h16.78v62.14h-16.78Z"/>
    <path class="cls-1" d="M390.29,393.71c-1.2-.54-8.99-3.19-11.49-3.81-2.5-.62-5.22-1.13-8.15-1.55-2.93-.42-5.95-.62-9.04-.62-2.47,0-4.58.07-6.32.22s-3.21.33-4.4.56c-1.19.23-2.13.49-2.83.8-.7.3-1.23.61-1.6.93-.37.32-.61.63-.72.95s-.16.6-.16.86c0,.86.46,1.61,1.39,2.26.93.65,2.19,1.22,3.8,1.72s3.48.98,5.61,1.42,4.39.9,6.79,1.38c2.39.47,4.87.99,7.41,1.55,2.55.56,5.02,1.21,7.41,1.96,2.39.75,4.66,1.61,6.79,2.6,2.13.99,4,2.14,5.61,3.46s2.87,2.84,3.8,4.56c.93,1.72,1.39,3.69,1.39,5.9,0,2.84-.54,5.28-1.62,7.32-1.08,2.04-2.53,3.76-4.33,5.16-1.81,1.41-3.9,2.53-6.28,3.38-2.38.85-4.87,1.5-7.48,1.96-2.61.46-5.25.76-7.92.9s-5.21.22-7.62.22c-6.3,0-12.13-.48-17.49-1.44-5.36-.96-10.09-2.16-14.2-3.59v-14.12c4.23,2.18,9.06,3.89,14.48,5.12,5.42,1.23,11.22,1.85,17.4,1.85,3.64,0,6.62-.18,8.92-.54s4.1-.82,5.4-1.38c1.3-.56,2.18-1.17,2.64-1.83.46-.66.7-1.29.7-1.89,0-.95-.46-1.77-1.39-2.47s-2.19-1.32-3.8-1.85c-1.61-.53-3.48-1.02-5.61-1.46-2.13-.44-4.39-.89-6.79-1.33s-4.86-.93-7.39-1.44c-2.53-.52-5-1.13-7.39-1.83-2.39-.7-4.66-1.52-6.79-2.45-2.13-.93-4-2.04-5.61-3.31-1.61-1.28-2.87-2.75-3.8-4.43-.93-1.68-1.39-3.62-1.39-5.83,0-2.61.49-4.86,1.48-6.76.99-1.89,2.32-3.51,4.01-4.84s3.63-2.42,5.84-3.25c2.21-.83,4.53-1.48,6.97-1.94s4.91-.77,7.41-.95c2.5-.17,4.88-.26,7.14-.26,2.47,0,5.01.11,7.62.34,2.61.23,5.18.55,7.71.97,2.53.42,4.98.9,7.34,1.44,2.36.55,4.55,1.12,6.56,1.72v13.68Z"/>
  </g>
</svg>