<?xml version="1.0" encoding="UTF-8"?>
<svg id="logo" xmlns="http://www.w3.org/2000/svg" version="1.1" viewBox="0 0 1355 500">
  <!-- Generator: Adobe Illustrator 30.3.0, SVG Export Plug-In . SVG Version: 2.1.3 Build 182)  -->
  <defs>
    <style>
      .st0 {
        fill: #15161c;
      }
    </style>
  </defs>
  <path class="st0" d="M443.12,334.44v-70.53h-116.2v70.53h-45.67v-169.13h45.67v61.55h116.2v-61.55h45.67v169.13h-45.67Z"/>
  <path class="st0" d="M554.32,334.44v-169.13h171.23v36.07h-124.33v27.94h117.92v36.07h-117.92v32.99h126.05v36.07h-172.95Z"/>
  <path class="st0" d="M783.94,334.44v-169.13h45.67v169.13h-45.67Z"/>
  <path class="st0" d="M1059.37,214.74c-3.28-1.48-24.47-8.69-31.28-10.37-6.81-1.68-14.21-3.08-22.2-4.22-7.99-1.13-16.19-1.7-24.59-1.7-6.73,0-12.46.2-17.22.59-4.75.39-8.74.9-11.98,1.52-3.24.62-5.8,1.35-7.69,2.17-1.89.82-3.34,1.66-4.35,2.52-1.01.86-1.66,1.72-1.95,2.58s-.44,1.64-.44,2.34c0,2.34,1.26,4.39,3.78,6.15,2.52,1.76,5.97,3.32,10.34,4.69,4.37,1.37,9.46,2.66,15.26,3.87,5.8,1.21,11.96,2.46,18.48,3.75,6.52,1.29,13.24,2.69,20.18,4.22,6.94,1.52,13.66,3.3,20.18,5.33,6.52,2.03,12.68,4.39,18.48,7.09,5.8,2.69,10.89,5.84,15.26,9.43s7.82,7.73,10.34,12.42c2.52,4.69,3.78,10.03,3.78,16.05,0,7.73-1.47,14.37-4.41,19.91-2.94,5.54-6.87,10.23-11.79,14.06-4.92,3.83-10.62,6.89-17.09,9.2-6.47,2.3-13.26,4.08-20.37,5.33-7.1,1.25-14.29,2.07-21.57,2.46-7.27.39-14.19.59-20.75.59-17.15,0-33.02-1.31-47.61-3.92-14.59-2.62-27.47-5.88-38.66-9.78v-38.42c11.52,5.94,24.66,10.58,39.41,13.94,14.76,3.36,30.54,5.04,47.36,5.04,9.92,0,18.01-.49,24.28-1.46s11.16-2.23,14.69-3.75c3.53-1.52,5.93-3.18,7.19-4.98,1.26-1.8,1.89-3.51,1.89-5.15,0-2.58-1.26-4.82-3.78-6.74s-5.97-3.59-10.34-5.04c-4.37-1.44-9.46-2.77-15.26-3.98-5.8-1.21-11.96-2.42-18.48-3.63-6.52-1.21-13.22-2.52-20.12-3.92-6.89-1.41-13.6-3.07-20.12-4.98-6.52-1.91-12.68-4.14-18.48-6.68-5.8-2.54-10.89-5.54-15.26-9.02-4.37-3.48-7.82-7.5-10.34-12.07-2.52-4.57-3.78-9.86-3.78-15.87,0-7.11,1.35-13.24,4.04-18.39,2.69-5.15,6.33-9.55,10.91-13.18,4.58-3.63,9.88-6.58,15.89-8.84,6.01-2.26,12.34-4.02,18.98-5.27,6.64-1.25,13.37-2.11,20.18-2.58,6.81-.47,13.28-.7,19.42-.7,6.73,0,13.64.31,20.75.94,7.1.62,14.1,1.5,21,2.64,6.89,1.13,13.56,2.44,19.99,3.92,6.43,1.48,12.38,3.05,17.85,4.69v37.25Z"/>
</svg>