<?xml version="1.0" encoding="UTF-8"?>
<svg id="_圖層_1" data-name="圖層_1" xmlns="http://www.w3.org/2000/svg" version="1.1" viewBox="0 0 723.75 338.6">
  <!-- Generator: Adobe Illustrator 30.4.0, SVG Export Plug-In . SVG Version: 2.1.4 Build 226)  -->
  <defs>
    <style>
      .st0 {
        fill: #fff;
      }
    </style>
  </defs>
  <path class="st0" d="M430.34,159.54c2.88-3.78,6.84-5.68,11.87-5.68,2.6,0,4.8.45,6.61,1.36,1.81.91,3.71,2.47,5.69,4.7l8.9-8.6c-2.97-3.23-6.11-5.55-9.42-6.96-3.32-1.41-7.24-2.11-11.77-2.11-3.71,0-7.27.6-10.69,1.79-3.42,1.2-6.47,3.11-9.15,5.75-2.68,2.64-4.8,6.06-6.37,10.26-1.57,4.2-2.35,9.21-2.35,15.02,0,7.58,1.33,13.84,3.99,18.79,2.66,4.94,6.16,8.53,10.51,10.75s9.03,3.34,14.06,3.34c2.97,0,5.66-.31,8.1-.93,2.43-.62,4.74-1.62,6.92-3,2.18-1.38,4.24-3.1,6.18-5.16l-8.9-8.47c-1.98,2.18-3.89,3.74-5.75,4.67s-4.04,1.39-6.55,1.39c-5.03,0-8.98-1.89-11.87-5.68-2.51-3.25-3.77-8.47-3.77-15.67,0-3.83.28-6.93.83-9.32.56-2.39,1.54-4.46,2.94-6.23Z"/>
  <path class="st0" d="M513.88,182.11c0,4.74-1.25,8.31-3.74,10.72-2.49,2.41-5.68,3.62-9.55,3.62s-6.88-1.19-9.27-3.58c-2.39-2.39-3.58-5.97-3.58-10.75v-39.06h-12.92v40.97c0,3.87.48,7.28,1.45,10.23.97,2.95,2.63,5.57,4.97,7.88,4.08,3.87,9.35,5.81,15.82,5.81,3.25,0,6.38-.62,9.36-1.85,2.99-1.24,5.57-3.01,7.76-5.31v6.43h12.61v-64.15h-12.92v39.06Z"/>
  <path class="st0" d="M574.18,142.25c-3.54,0-6.85.71-9.92,2.11-3.07,1.41-5.45,3.29-7.14,5.65v-6.96h-12.67v64.15h12.92v-38.95c0-2.88.58-5.4,1.73-7.56,1.15-2.16,2.71-3.84,4.67-5.03,1.96-1.19,4.09-1.79,6.4-1.79,2.18,0,3.95.33,5.31.99,1.36.66,2.78,1.75,4.26,3.28l9.76-9.73c-2.22-2.24-4.54-3.82-6.95-4.75-2.41-.93-5.2-1.4-8.37-1.4Z"/>
  <path class="st0" d="M645.4,173.15c0-6.06-1.07-11.42-3.22-16.1-2.15-4.68-5.28-8.31-9.4-10.91-4.13-2.6-8.99-3.89-14.6-3.89s-10.27,1.3-14.35,3.89c-4.08,2.6-7.25,6.34-9.5,11.25-2.25,4.9-3.37,10.79-3.37,17.67,0,5.93.72,11,2.17,15.2,1.44,4.2,3.46,7.6,6.06,10.2,2.6,2.6,5.66,4.49,9.19,5.69,3.53,1.19,7.35,1.79,11.48,1.79,5.36,0,9.84-.79,13.42-2.38,3.59-1.59,7.14-4.13,10.64-7.63l-8.22-7.66c-2.47,2.39-4.8,4.08-6.98,5.07-2.18.99-5.05,1.48-8.59,1.48s-6.52-.73-8.93-2.19c-2.41-1.46-4.25-3.52-5.53-6.18-1.28-2.66-1.92-5.86-1.92-9.61h41.65v-5.69ZM603.75,169.87c.16-2.47.34-4.21.53-5.22.19-1.01.57-2.17,1.14-3.49,1.07-2.47,2.73-4.45,4.97-5.93,2.25-1.48,4.85-2.22,7.82-2.22s5.61.74,7.82,2.22c2.2,1.48,3.82,3.46,4.85,5.93,1.03,2.47,1.61,5.38,1.73,8.71h-28.86Z"/>
  <path class="st0" d="M390.03,146.14c-4.13-2.6-8.99-3.89-14.6-3.89s-10.27,1.3-14.35,3.89c-4.08,2.6-7.25,6.34-9.5,11.25-2.25,4.9-3.37,10.79-3.37,17.67,0,5.93.72,11,2.17,15.2,1.44,4.2,3.46,7.6,6.06,10.2,2.6,2.6,5.66,4.49,9.19,5.69,3.53,1.19,7.35,1.79,11.48,1.79,5.36,0,9.84-.79,13.42-2.38,3.59-1.59,7.14-4.13,10.64-7.63l-8.22-7.66c-2.47,2.39-4.8,4.08-6.98,5.07-2.18.99-5.05,1.48-8.59,1.48s-6.52-.73-8.93-2.19c-2.41-1.46-4.25-3.52-5.53-6.18-1.28-2.66-1.92-5.86-1.92-9.61h41.65v-5.69c0-6.06-1.07-11.42-3.22-16.1-2.15-4.68-5.28-8.31-9.4-10.91ZM361,169.87c.16-2.47.34-4.21.53-5.22.19-1.01.57-2.17,1.14-3.49,1.07-2.47,2.73-4.45,4.97-5.93,2.25-1.48,4.85-2.22,7.82-2.22s5.61.74,7.82,2.22c2.2,1.48,3.82,3.46,4.85,5.93,1.03,2.47,1.61,5.38,1.73,8.71h-28.86Z"/>
  <polygon class="st0" points="357.29 102.58 322.11 102.58 299.24 142.18 316.83 172.65 357.29 102.58"/>
  <polygon class="st0" points="316.87 184.9 316.83 184.83 299.32 215.15 299.41 215.15 299.32 215.3 322.19 254.9 357.37 254.9 316.91 184.83 316.87 184.9"/>
  <path class="st0" d="M118.09,180.82c0,4.82-1.27,8.46-3.8,10.91-2.54,2.45-5.78,3.68-9.72,3.68s-7-1.22-9.43-3.65c-2.43-2.43-3.65-6.08-3.65-10.94v-39.75h-13.14v41.7c0,3.94.49,7.41,1.48,10.41.98,3,2.67,5.67,5.06,8.02,4.15,3.94,9.52,5.91,16.1,5.91,3.31,0,6.49-.63,9.53-1.89,3.04-1.26,5.67-3.06,7.89-5.41v6.54h12.83v-65.28h-13.14v39.75Z"/>
  <path class="st0" d="M179.51,140.26c-3.27,0-6.44.63-9.5,1.9-3.06,1.26-5.68,3.1-7.86,5.5v-6.58h-12.89v65.28h13.14v-39.76c0-4.77,1.27-8.39,3.8-10.84,2.54-2.45,5.78-3.68,9.72-3.68,2.52,0,4.76.51,6.73,1.54,1.97,1.03,3.53,2.63,4.69,4.81,1.15,2.18,1.73,4.9,1.73,8.17v39.76h13.14v-41.76c0-8.01-2.2-14.13-6.6-18.36-4.07-3.98-9.43-5.97-16.1-5.97Z"/>
  <rect class="st0" x="219.54" y="141.07" width="13.14" height="65.28"/>
  <polygon class="st0" points="232.68 132.51 225.09 119.36 211.95 119.36 219.54 132.51 232.68 132.51"/>
  <polygon class="st0" points="295.73 148.27 295.72 148.28 247.35 64.5 212.17 64.5 268.03 161.23 279.9 140.66 301.89 178.74 279.9 216.82 268.03 196.25 223.08 274.1 258.26 274.1 313.31 178.74 295.73 148.27"/>
</svg>