<?xml version="1.0" encoding="UTF-8"?>
<svg id="_圖層_1" data-name="圖層 1" xmlns="http://www.w3.org/2000/svg" viewBox="0 0 723.75 338.6">
  <defs>
    <style>
      .cls-1 {
        fill: #040000;
      }
    </style>
  </defs>
  <path class="cls-1" d="M430.46,159.53c2.89-3.79,6.85-5.69,11.89-5.69,2.6,0,4.81.45,6.62,1.36,1.82.91,3.71,2.48,5.69,4.7l8.91-8.62c-2.97-3.24-6.12-5.56-9.44-6.97-3.32-1.41-7.25-2.12-11.79-2.12-3.71,0-7.28.6-10.71,1.8-3.43,1.2-6.48,3.12-9.16,5.76-2.68,2.64-4.81,6.07-6.38,10.28-1.57,4.21-2.35,9.22-2.35,15.04,0,7.59,1.33,13.87,3.99,18.82,2.66,4.95,6.17,8.54,10.52,10.77,4.35,2.23,9.05,3.34,14.08,3.34,2.97,0,5.67-.31,8.11-.93,2.44-.62,4.75-1.62,6.93-3,2.19-1.38,4.25-3.11,6.19-5.17l-8.91-8.48c-1.98,2.19-3.9,3.74-5.76,4.67-1.86.93-4.04,1.39-6.56,1.39-5.04,0-9-1.89-11.89-5.69-2.52-3.26-3.78-8.49-3.78-15.7,0-3.83.28-6.94.84-9.33.56-2.39,1.54-4.47,2.94-6.24Z"/>
  <path class="cls-1" d="M514.13,182.13c0,4.75-1.25,8.33-3.74,10.74s-5.69,3.62-9.56,3.62-6.89-1.2-9.29-3.59c-2.39-2.39-3.59-5.98-3.59-10.77v-39.12h-12.94v41.04c0,3.88.49,7.29,1.45,10.24.97,2.95,2.63,5.58,4.98,7.89,4.09,3.88,9.37,5.82,15.85,5.82,3.26,0,6.39-.62,9.38-1.86,2.99-1.24,5.58-3.01,7.77-5.32v6.44h12.63v-64.25h-12.94v39.12Z"/>
  <path class="cls-1" d="M574.54,142.2c-3.55,0-6.86.71-9.94,2.12-3.07,1.41-5.46,3.3-7.15,5.66v-6.97h-12.69v64.25h12.94v-39.01c0-2.89.58-5.41,1.73-7.57,1.16-2.16,2.71-3.84,4.67-5.04,1.96-1.2,4.1-1.79,6.41-1.79,2.19,0,3.96.33,5.32.99,1.36.66,2.79,1.75,4.27,3.28l9.78-9.75c-2.23-2.24-4.55-3.83-6.96-4.76-2.41-.93-5.21-1.4-8.39-1.4Z"/>
  <path class="cls-1" d="M645.88,173.15c0-6.07-1.07-11.44-3.22-16.13-2.15-4.68-5.29-8.33-9.42-10.93-4.13-2.6-9.01-3.9-14.63-3.9s-10.29,1.3-14.38,3.9c-4.09,2.6-7.26,6.36-9.51,11.27-2.25,4.91-3.38,10.81-3.38,17.7,0,5.94.72,11.02,2.17,15.23,1.45,4.21,3.47,7.61,6.07,10.21,2.6,2.6,5.67,4.5,9.2,5.69,3.53,1.2,7.36,1.8,11.5,1.8,5.37,0,9.85-.79,13.45-2.38,3.59-1.59,7.15-4.14,10.66-7.64l-8.23-7.68c-2.48,2.39-4.81,4.09-6.99,5.08-2.19.99-5.05,1.49-8.6,1.49s-6.53-.73-8.94-2.2c-2.41-1.46-4.26-3.53-5.54-6.19-1.28-2.66-1.92-5.87-1.92-9.63h41.72v-5.69ZM604.16,169.87c.16-2.48.34-4.22.53-5.23.19-1.01.57-2.18,1.15-3.5,1.07-2.48,2.73-4.46,4.98-5.94,2.25-1.49,4.86-2.23,7.83-2.23s5.62.74,7.83,2.23c2.21,1.49,3.83,3.47,4.86,5.94,1.03,2.48,1.61,5.39,1.73,8.73h-28.91Z"/>
  <path class="cls-1" d="M390.08,146.1c-4.13-2.6-9.01-3.9-14.63-3.9s-10.29,1.3-14.38,3.9c-4.09,2.6-7.26,6.36-9.51,11.27-2.25,4.91-3.38,10.81-3.38,17.7,0,5.94.72,11.02,2.17,15.23,1.45,4.21,3.47,7.61,6.07,10.21,2.6,2.6,5.67,4.5,9.2,5.69,3.53,1.2,7.36,1.8,11.5,1.8,5.37,0,9.85-.79,13.45-2.38,3.59-1.59,7.15-4.14,10.66-7.64l-8.23-7.68c-2.48,2.39-4.81,4.09-6.99,5.08-2.19.99-5.05,1.49-8.6,1.49s-6.53-.73-8.94-2.2c-2.41-1.46-4.26-3.53-5.54-6.19-1.28-2.66-1.92-5.87-1.92-9.63h41.72v-5.69c0-6.07-1.07-11.44-3.22-16.13-2.15-4.68-5.29-8.33-9.42-10.93ZM361,169.87c.16-2.48.34-4.22.53-5.23.19-1.01.57-2.18,1.15-3.5,1.07-2.48,2.73-4.46,4.98-5.94,2.25-1.49,4.86-2.23,7.83-2.23s5.62.74,7.83,2.23c2.21,1.49,3.83,3.47,4.86,5.94,1.03,2.48,1.61,5.39,1.73,8.73h-28.91Z"/>
  <polygon class="cls-1" points="357.28 102.46 322.04 102.46 299.14 142.14 316.76 172.65 357.28 102.46"/>
  <polygon class="cls-1" points="316.8 184.93 316.75 184.86 299.22 215.23 299.3 215.23 299.22 215.38 322.12 255.05 357.36 255.05 316.84 184.86 316.8 184.93"/>
  <path class="cls-1" d="M117.68,180.84c0,4.83-1.27,8.47-3.81,10.93-2.54,2.46-5.79,3.69-9.73,3.69s-7.01-1.22-9.45-3.65c-2.44-2.44-3.65-6.09-3.65-10.96v-39.81h-13.17v41.77c0,3.95.49,7.42,1.48,10.43.99,3,2.68,5.68,5.07,8.03,4.16,3.95,9.53,5.92,16.13,5.92,3.32,0,6.5-.63,9.54-1.89,3.04-1.26,5.68-3.07,7.91-5.42v6.55h12.85v-65.39h-13.17v39.81Z"/>
  <path class="cls-1" d="M179.2,140.21c-3.28,0-6.45.63-9.51,1.9-3.07,1.27-5.69,3.1-7.87,5.51v-6.59h-12.91v65.39h13.17v-39.83c0-4.78,1.27-8.4,3.81-10.85,2.54-2.45,5.78-3.68,9.73-3.68,2.52,0,4.77.51,6.74,1.54,1.97,1.03,3.54,2.63,4.69,4.81,1.15,2.18,1.73,4.91,1.73,8.18v39.83h13.17v-41.83c0-8.02-2.2-14.15-6.61-18.39-4.07-3.99-9.45-5.98-16.13-5.98Z"/>
  <rect class="cls-1" x="219.3" y="141.03" width="13.17" height="65.39"/>
  <polygon class="cls-1" points="232.46 132.44 224.86 119.28 211.7 119.28 219.3 132.44 232.46 132.44"/>
  <polygon class="cls-1" points="295.61 148.24 295.61 148.24 247.16 64.32 211.92 64.32 267.87 161.22 279.76 140.61 301.79 178.76 279.76 216.9 267.87 196.3 222.84 274.28 258.08 274.28 313.23 178.76 295.61 148.24"/>
</svg>