<?xml version="1.0" encoding="UTF-8"?>
<svg id="_圖層_1" data-name="圖層_1" xmlns="http://www.w3.org/2000/svg" version="1.1" viewBox="0 0 723.75 338.6">
  <!-- Generator: Adobe Illustrator 30.4.0, SVG Export Plug-In . SVG Version: 2.1.4 Build 226)  -->
  <defs>
    <style>
      .st0 {
        fill: #fff;
      }

      .st1 {
        fill: #e1251b;
      }
    </style>
  </defs>
  <g>
    <g>
      <path class="st0" d="M463.57,198.91c-1.94,2.06-4,3.79-6.19,5.17-2.19,1.38-4.5,2.38-6.93,3-2.44.62-5.14.93-8.11.93-5.04,0-9.73-1.11-14.08-3.34-4.35-2.23-7.86-5.82-10.52-10.77-2.66-4.95-3.99-11.22-3.99-18.82,0-5.82.78-10.83,2.35-15.04,1.57-4.21,3.69-7.63,6.38-10.28,2.68-2.64,5.74-4.56,9.16-5.76,3.43-1.2,6.99-1.8,10.71-1.8,4.54,0,8.47.71,11.79,2.12,3.32,1.41,6.47,3.73,9.44,6.97l-8.91,8.62c-1.98-2.23-3.88-3.8-5.69-4.7-1.82-.91-4.02-1.36-6.62-1.36-5.04,0-9,1.9-11.89,5.69-1.4,1.77-2.38,3.85-2.94,6.24-.56,2.39-.84,5.5-.84,9.33,0,7.21,1.26,12.45,3.78,15.7,2.89,3.79,6.85,5.69,11.89,5.69,2.52,0,4.7-.46,6.56-1.39,1.86-.93,3.78-2.49,5.76-4.67l8.91,8.48Z"/>
      <path class="st0" d="M527.07,207.26h-12.63v-6.44c-2.19,2.31-4.78,4.09-7.77,5.32-2.99,1.24-6.12,1.86-9.38,1.86-6.48,0-11.76-1.94-15.85-5.82-2.35-2.31-4.01-4.94-4.98-7.89-.97-2.95-1.45-6.37-1.45-10.24v-41.04h12.94v39.12c0,4.79,1.2,8.38,3.59,10.77,2.39,2.39,5.49,3.59,9.29,3.59s7.07-1.21,9.56-3.62c2.5-2.41,3.75-5.99,3.75-10.74v-39.12h12.94v64.25Z"/>
      <path class="st0" d="M589.89,148.37l-9.78,9.75c-1.49-1.53-2.91-2.62-4.27-3.28-1.36-.66-3.14-.99-5.32-.99-2.31,0-4.45.6-6.41,1.79-1.96,1.2-3.52,2.88-4.67,5.04-1.16,2.16-1.73,4.69-1.73,7.57v39.01h-12.94v-64.25h12.69v6.97c1.69-2.36,4.08-4.25,7.15-5.66,3.07-1.41,6.39-2.12,9.94-2.12,3.18,0,5.97.47,8.39,1.4,2.41.93,4.74,2.52,6.96,4.76Z"/>
      <path class="st0" d="M645.88,178.85h-41.72c0,3.76.64,6.96,1.92,9.63,1.28,2.66,3.13,4.73,5.54,6.19,2.41,1.47,5.4,2.2,8.94,2.2s6.42-.5,8.6-1.49c2.19-.99,4.52-2.68,6.99-5.08l8.23,7.68c-3.51,3.51-7.07,6.06-10.66,7.64-3.59,1.59-8.08,2.38-13.45,2.38-4.13,0-7.96-.6-11.5-1.8-3.53-1.2-6.6-3.1-9.2-5.69-2.6-2.6-4.63-6-6.07-10.21-1.45-4.21-2.17-9.29-2.17-15.23,0-6.89,1.13-12.79,3.38-17.7,2.25-4.91,5.42-8.67,9.51-11.27,4.09-2.6,8.88-3.9,14.38-3.9s10.49,1.3,14.63,3.9c4.13,2.6,7.27,6.24,9.42,10.93,2.15,4.68,3.22,10.06,3.22,16.13v5.69ZM633.07,169.87c-.12-3.34-.7-6.25-1.73-8.73-1.03-2.48-2.65-4.46-4.86-5.94-2.21-1.49-4.82-2.23-7.83-2.23s-5.58.74-7.83,2.23c-2.25,1.49-3.91,3.47-4.98,5.94-.58,1.32-.96,2.49-1.15,3.5-.19,1.01-.36,2.75-.53,5.23h28.91Z"/>
    </g>
    <path class="st0" d="M402.72,178.85h-41.72c0,3.76.64,6.96,1.92,9.63s3.13,4.73,5.54,6.19c2.41,1.47,5.4,2.2,8.94,2.2s6.42-.5,8.6-1.49c2.19-.99,4.52-2.68,6.99-5.08l8.23,7.68c-3.51,3.51-7.07,6.06-10.66,7.64-3.59,1.59-8.08,2.38-13.45,2.38-4.13,0-7.96-.6-11.5-1.8-3.53-1.2-6.6-3.1-9.2-5.69-2.6-2.6-4.63-6-6.07-10.21-1.45-4.21-2.17-9.29-2.17-15.23,0-6.89,1.13-12.79,3.38-17.7,2.25-4.91,5.42-8.67,9.51-11.27,4.09-2.6,8.88-3.9,14.38-3.9s10.49,1.3,14.63,3.9c4.13,2.6,7.27,6.24,9.42,10.93,2.15,4.68,3.22,10.06,3.22,16.13v5.69ZM389.9,169.87c-.12-3.34-.7-6.25-1.73-8.73-1.03-2.48-2.65-4.46-4.86-5.94-2.21-1.49-4.82-2.23-7.83-2.23s-5.58.74-7.83,2.23c-2.25,1.49-3.91,3.47-4.98,5.94-.58,1.32-.96,2.49-1.15,3.5-.19,1.01-.36,2.75-.53,5.23h28.91Z"/>
  </g>
  <polygon class="st0" points="322.04 102.46 299.14 142.14 316.76 172.65 357.28 102.46 322.04 102.46"/>
  <polygon class="st0" points="316.84 184.86 316.8 184.93 316.75 184.86 299.22 215.23 299.3 215.23 299.22 215.38 322.12 255.05 357.36 255.05 316.84 184.86"/>
  <g>
    <path class="st0" d="M130.84,206.42h-12.85v-6.55c-2.23,2.35-4.86,4.16-7.91,5.42-3.05,1.26-6.23,1.89-9.54,1.89-6.59,0-11.97-1.97-16.13-5.92-2.39-2.35-4.08-5.03-5.07-8.03-.99-3-1.48-6.48-1.48-10.43v-41.77h13.17v39.81c0,4.87,1.22,8.53,3.65,10.96,2.44,2.44,5.59,3.65,9.45,3.65s7.19-1.23,9.73-3.69c2.54-2.46,3.81-6.1,3.81-10.93v-39.81h13.17v65.39Z"/>
    <path class="st0" d="M201.94,206.42h-13.17v-39.83c0-3.27-.58-6-1.73-8.18-1.16-2.18-2.72-3.79-4.69-4.81-1.97-1.03-4.22-1.54-6.74-1.54-3.95,0-7.19,1.23-9.73,3.68-2.54,2.45-3.81,6.07-3.81,10.85v39.83h-13.17v-65.39h12.91v6.59c2.18-2.41,4.81-4.24,7.87-5.51,3.07-1.27,6.24-1.9,9.51-1.9,6.68,0,12.05,2,16.13,5.98,4.41,4.24,6.61,10.37,6.61,18.39v41.83Z"/>
    <g>
      <rect class="st0" x="219.3" y="141.03" width="13.17" height="65.39"/>
      <polygon class="st0" points="224.86 119.28 211.7 119.28 219.3 132.44 232.46 132.44 224.86 119.28"/>
    </g>
  </g>
  <polygon class="st0" points="222.84 274.28 258.08 274.28 313.23 178.76 295.61 148.24 295.61 148.24 247.16 64.32 211.92 64.32 277.99 178.76 222.84 274.28"/>
  <polygon class="st1" points="279.76 216.9 301.79 178.76 279.76 140.61 257.74 178.76 279.76 216.9"/>
</svg>