<?xml version="1.0" encoding="UTF-8"?>
<svg id="logo" xmlns="http://www.w3.org/2000/svg" version="1.1" viewBox="0 0 500 500">
  <!-- Generator: Adobe Illustrator 30.3.0, SVG Export Plug-In . SVG Version: 2.1.3 Build 182)  -->
  <defs>
    <style>
      .st0 {
        fill: #15161c;
      }
    </style>
  </defs>
  <path class="st0" d="M296.5,306.85l23.2-40.16c.52-.9.52-2,0-2.9l-23.18-40.17c-1.12-1.94-3.91-1.94-5.03,0l-23.2,40.16c-.52.9-.52,2,0,2.9l23.18,40.17c1.12,1.94,3.91,1.94,5.03,0Z"/>
  <path class="st0" d="M363.94,306.85l23.2-40.16c.52-.9.52-2,0-2.9l-23.18-40.17c-1.12-1.94-3.91-1.94-5.03,0l-23.2,40.16c-.52.9-.52,2,0,2.9l23.18,40.17c1.12,1.94,3.91,1.94,5.03,0Z"/>
  <path class="st0" d="M330.45,365.92l23.2-40.16c.52-.9.52-2,0-2.9l-23.18-40.17c-1.12-1.94-3.91-1.94-5.03,0l-23.2,40.16c-.52.9-.52,2,0,2.9l23.18,40.17c1.12,1.94,3.91,1.94,5.03,0Z"/>
  <path class="st0" d="M330.45,247.77l23.2-40.16c.52-.9.52-2,0-2.9l-23.18-40.17c-1.12-1.94-3.91-1.94-5.03,0l-23.2,40.16c-.52.9-.52,2,0,2.9l23.18,40.17c1.12,1.94,3.91,1.94,5.03,0Z"/>
  <path class="st0" d="M153.63,167.75c-.06-1.15.59-2.23,1.64-2.7,44.5-20.23,95.97-31.8,150.77-31.8,32.32,0,63.45,4.05,92.7,11.5,1.67.43,3.32-.75,3.43-2.47.08-1.2.15-2.39.22-3.59.06-1.15-.59-2.22-1.63-2.7-44.5-20.23-95.94-31.81-150.74-31.81s-106.27,11.57-150.77,31.8c-1.05.48-1.7,1.56-1.64,2.71,5.79,109.59,64.96,204.39,150.94,256.72.89.54,2.03.54,2.92,0,1.54-.94,3.07-1.9,4.59-2.86,1.53-.97,1.7-3.13.36-4.36-59.36-54.57-98.17-132.76-102.8-220.44Z"/>
</svg>