<?xml version="1.0" encoding="UTF-8"?>
<svg id="logo" xmlns="http://www.w3.org/2000/svg" version="1.1" viewBox="0 0 500 500">
  <!-- Generator: Adobe Illustrator 30.4.0, SVG Export Plug-In . SVG Version: 2.1.4 Build 226)  -->
  <defs>
    <style>
      .st0 {
        fill: #fff;
      }

      .st1 {
        fill: #e1251b;
      }
    </style>
  </defs>
  <g>
    <path class="st0" d="M80.43,437.77h-16.8v-62.23h42.12c4.53,0,8.37.47,11.53,1.4,3.16.94,5.72,2.26,7.7,3.99,1.98,1.72,3.41,3.8,4.3,6.22.89,2.43,1.33,5.14,1.33,8.13,0,2.62-.37,4.92-1.11,6.88s-1.74,3.64-2.99,5.05c-1.25,1.4-2.71,2.59-4.37,3.55-1.66.97-3.41,1.77-5.25,2.4l20.38,24.59h-19.66l-18.84-22.92h-18.34v22.94h0ZM113.63,395.2c0-1.21-.16-2.24-.48-3.08-.32-.85-.87-1.54-1.65-2.06-.79-.53-1.83-.91-3.15-1.15-1.31-.24-2.95-.36-4.91-.36h-23.01v13.31h23.01c1.96,0,3.6-.12,4.91-.36,1.31-.24,2.36-.63,3.15-1.15.78-.53,1.33-1.22,1.65-2.06.32-.85.48-1.87.48-3.08h0Z"/>
    <path class="st0" d="M193.75,426h-34.69l-5.84,11.78h-18.75l32.56-62.23h18.75l32.56,62.23h-18.75l-5.84-11.78ZM165.09,413.86h22.74l-11.32-22.92-11.41,22.92h-.01Z"/>
    <path class="st0" d="M253.46,437.77h-19.56l-31.48-62.23h18.75l22.64,46.83,22.6-46.83h18.75l-31.7,62.23Z"/>
    <path class="st0" d="M289.43,437.77v-62.23h63v13.27h-45.74v10.28h43.39v13.27h-43.39v12.14h46.38v13.27h-63.64Z"/>
    <path class="st0" d="M418.78,437.77l-41.99-42.76v42.76h-16.8v-62.23h18.25l42.03,42.93v-42.93h16.71v62.23h-18.21,0Z"/>
  </g>
  <g>
    <path class="st1" d="M290.35,236.73l19.98-34.58c.45-.77.45-1.73,0-2.5l-19.96-34.59c-.96-1.67-3.37-1.67-4.33,0l-19.98,34.58c-.45.77-.45,1.73,0,2.5l19.96,34.59c.96,1.67,3.37,1.67,4.33,0Z"/>
    <path class="st1" d="M348.42,236.73l19.98-34.58c.45-.77.45-1.73,0-2.5l-19.96-34.59c-.96-1.67-3.37-1.67-4.33,0l-19.98,34.58c-.45.77-.45,1.73,0,2.5l19.96,34.59c.96,1.67,3.37,1.67,4.33,0Z"/>
    <path class="st1" d="M319.58,287.6l19.98-34.58c.45-.77.45-1.73,0-2.5l-19.96-34.59c-.96-1.67-3.37-1.67-4.33,0l-19.98,34.58c-.45.77-.45,1.73,0,2.5l19.96,34.59c.96,1.67,3.37,1.67,4.33,0Z"/>
    <path class="st1" d="M319.58,185.86l19.98-34.58c.45-.77.45-1.73,0-2.5l-19.96-34.59c-.96-1.67-3.37-1.67-4.33,0l-19.98,34.58c-.45.77-.45,1.73,0,2.5l19.96,34.59c.96,1.67,3.37,1.67,4.33,0Z"/>
    <path class="st0" d="M167.33,116.96c-.05-.99.51-1.92,1.41-2.33,38.31-17.42,82.63-27.38,129.82-27.38,27.83,0,54.64,3.49,79.82,9.91,1.44.37,2.86-.65,2.96-2.13.07-1.03.13-2.06.19-3.09.05-.99-.5-1.91-1.4-2.32-38.31-17.42-82.61-27.39-129.79-27.39s-91.5,9.96-129.82,27.38c-.9.41-1.46,1.34-1.41,2.33,4.98,94.37,55.94,175.99,129.97,221.05.77.47,1.75.47,2.52,0,1.33-.81,2.64-1.63,3.95-2.47,1.31-.84,1.46-2.69.31-3.75-51.11-46.99-84.53-114.32-88.52-189.81h0Z"/>
  </g>
</svg>