<?xml version="1.0" encoding="UTF-8"?>
<svg id="logo" xmlns="http://www.w3.org/2000/svg" version="1.1" viewBox="0 0 1355 500">
  <!-- Generator: Adobe Illustrator 30.3.0, SVG Export Plug-In . SVG Version: 2.1.3 Build 182)  -->
  <defs>
    <style>
      .st0 {
        fill: #fff;
      }
    </style>
  </defs>
  <path class="st0" d="M214.73,334.76h-45.77v-169.51h114.74c12.34,0,22.81,1.27,31.4,3.82,8.6,2.55,15.58,6.17,20.97,10.87,5.39,4.69,9.3,10.34,11.72,16.96,2.42,6.63,3.64,14.01,3.64,22.15,0,7.15-1.01,13.41-3.02,18.75-2.01,5.34-4.73,9.93-8.14,13.75-3.41,3.83-7.38,7.05-11.9,9.68-4.52,2.63-9.3,4.82-14.31,6.54l55.52,67h-53.55l-51.33-62.42h-49.97v62.42ZM305.16,218.79c0-3.29-.43-6.09-1.29-8.39-.86-2.31-2.36-4.18-4.5-5.62-2.14-1.44-5-2.49-8.58-3.15-3.58-.66-8.04-.98-13.39-.98h-62.68v36.27h62.68c5.35,0,9.81-.32,13.39-.98,3.58-.66,6.44-1.71,8.58-3.15,2.14-1.44,3.64-3.31,4.5-5.61.86-2.31,1.29-5.1,1.29-8.39Z"/>
  <path class="st0" d="M523.43,302.68h-94.51l-15.91,32.08h-51.08l88.71-169.51h51.08l88.71,169.51h-51.07l-15.92-32.08ZM445.33,269.61h61.94l-30.84-62.42-31.1,62.42Z"/>
  <path class="st0" d="M686.09,334.76h-53.29l-85.75-169.51h51.08l61.69,127.57,61.57-127.57h51.07l-86.36,169.51Z"/>
  <path class="st0" d="M784.07,334.76v-169.51h171.62v36.14h-124.62v28.01h118.2v36.14h-118.2v33.06h126.34v36.15h-173.34Z"/>
  <path class="st0" d="M1136.45,334.76l-114.37-116.47v116.47h-45.77v-169.51h49.72l114.49,116.95v-116.95h45.53v169.51h-49.6Z"/>
</svg>